<svg width="120" height="40" viewBox="0 0 120 40" fill="none" xmlns="http://www.w3.org/2000/svg">
    <path d="M0 10C0 4.47715 4.47715 0 10 0H30C35.5228 0 40 4.47715 40 10V30C40 35.5228 35.5228 40 30 40H10C4.47715 40 0 35.5228 0 30V10Z" fill="url(#paint0_linear_1_27)"/>
    <path d="M29.42 18.922C29.599 18.843 29.7509 18.7133 29.8569 18.5488C29.9629 18.3843 30.0183 18.1924 30.0163 17.9967C30.0143 17.8011 29.9549 17.6103 29.8455 17.4481C29.7362 17.2858 29.5816 17.1593 29.401 17.084L20.83 13.18C20.5694 13.0611 20.2864 12.9996 20 12.9996C19.7136 12.9996 19.4306 13.0611 19.17 13.18L10.6 17.08C10.422 17.158 10.2705 17.2861 10.1642 17.4488C10.0578 17.6115 10.0012 17.8016 10.0012 17.996C10.0012 18.1904 10.0578 18.3805 10.1642 18.5432C10.2705 18.7059 10.422 18.834 10.6 18.912L19.17 22.82C19.4306 22.9388 19.7136 23.0004 20 23.0004C20.2864 23.0004 20.5694 22.9388 20.83 22.82L29.42 18.922Z" stroke="white" stroke-width="2" stroke-linecap="round" stroke-linejoin="round"/>
    <path d="M30 18V24" stroke="white" stroke-width="2" stroke-linecap="round" stroke-linejoin="round"/>
    <path d="M14 20.5V24C14 24.7956 14.6321 25.5587 15.7574 26.1213C16.8826 26.6839 18.4087 27 20 27C21.5913 27 23.1174 26.6839 24.2426 26.1213C25.3679 25.5587 26 24.7956 26 24V20.5" stroke="white" stroke-width="2" stroke-linecap="round" stroke-linejoin="round"/>
    <path d="M53.4091 18V6.36364H57.3409C58.2538 6.36364 59 6.52841 59.5795 6.85795C60.1629 7.18371 60.5947 7.625 60.875 8.18182C61.1553 8.73864 61.2955 9.35985 61.2955 10.0455C61.2955 10.7311 61.1553 11.3542 60.875 11.9148C60.5985 12.4754 60.1705 12.9223 59.5909 13.2557C59.0114 13.5852 58.2689 13.75 57.3636 13.75H54.5455V12.5H57.3182C57.9432 12.5 58.4451 12.392 58.8239 12.1761C59.2027 11.9602 59.4773 11.6686 59.6477 11.3011C59.822 10.9299 59.9091 10.5114 59.9091 10.0455C59.9091 9.57955 59.822 9.16288 59.6477 8.79545C59.4773 8.42803 59.2008 8.14015 58.8182 7.93182C58.4356 7.7197 57.928 7.61364 57.2955 7.61364H54.8182V18H53.4091ZM63.2528 18V6.36364H67.1847C68.0975 6.36364 68.8438 6.52841 69.4233 6.85795C70.0066 7.18371 70.4384 7.625 70.7188 8.18182C70.9991 8.73864 71.1392 9.35985 71.1392 10.0455C71.1392 10.7311 70.9991 11.3542 70.7188 11.9148C70.4422 12.4754 70.0142 12.9223 69.4347 13.2557C68.8551 13.5852 68.1127 13.75 67.2074 13.75H64.3892V12.5H67.1619C67.7869 12.5 68.2888 12.392 68.6676 12.1761C69.0464 11.9602 69.321 11.6686 69.4915 11.3011C69.6657 10.9299 69.7528 10.5114 69.7528 10.0455C69.7528 9.57955 69.6657 9.16288 69.4915 8.79545C69.321 8.42803 69.0445 8.14015 68.6619 7.93182C68.2794 7.7197 67.7718 7.61364 67.1392 7.61364H64.6619V18H63.2528ZM82.4602 10H81.0511C80.9678 9.5947 80.822 9.23864 80.6136 8.93182C80.4091 8.625 80.1591 8.36742 79.8636 8.15909C79.572 7.94697 79.2481 7.78788 78.892 7.68182C78.536 7.57576 78.1648 7.52273 77.7784 7.52273C77.0739 7.52273 76.4356 7.70076 75.8636 8.05682C75.2955 8.41288 74.8428 8.9375 74.5057 9.63068C74.1723 10.3239 74.0057 11.1742 74.0057 12.1818C74.0057 13.1894 74.1723 14.0398 74.5057 14.733C74.8428 15.4261 75.2955 15.9508 75.8636 16.3068C76.4356 16.6629 77.0739 16.8409 77.7784 16.8409C78.1648 16.8409 78.536 16.7879 78.892 16.6818C79.2481 16.5758 79.572 16.4186 79.8636 16.2102C80.1591 15.9981 80.4091 15.7386 80.6136 15.4318C80.822 15.1212 80.9678 14.7652 81.0511 14.3636H82.4602C82.3542 14.9583 82.161 15.4905 81.8807 15.9602C81.6004 16.4299 81.2519 16.8295 80.8352 17.1591C80.4186 17.4848 79.9508 17.733 79.4318 17.9034C78.9167 18.0739 78.3655 18.1591 77.7784 18.1591C76.786 18.1591 75.9034 17.9167 75.1307 17.4318C74.358 16.947 73.75 16.2576 73.3068 15.3636C72.8636 14.4697 72.642 13.4091 72.642 12.1818C72.642 10.9545 72.8636 9.89394 73.3068 9C73.75 8.10606 74.358 7.41667 75.1307 6.93182C75.9034 6.44697 76.786 6.20455 77.7784 6.20455C78.3655 6.20455 78.9167 6.28977 79.4318 6.46023C79.9508 6.63068 80.4186 6.88068 80.8352 7.21023C81.2519 7.53598 81.6004 7.93371 81.8807 8.40341C82.161 8.86932 82.3542 9.40151 82.4602 10ZM84.4247 18V6.36364H88.4929C89.3035 6.36364 89.9721 6.50379 90.4986 6.78409C91.0251 7.06061 91.4171 7.43371 91.6747 7.90341C91.9323 8.36932 92.0611 8.88636 92.0611 9.45455C92.0611 9.95455 91.9721 10.3674 91.794 10.6932C91.6198 11.0189 91.3887 11.2765 91.1009 11.4659C90.8168 11.6553 90.508 11.7955 90.1747 11.8864V12C90.5308 12.0227 90.8887 12.1477 91.2486 12.375C91.6084 12.6023 91.9096 12.928 92.152 13.3523C92.3944 13.7765 92.5156 14.2955 92.5156 14.9091C92.5156 15.4924 92.383 16.017 92.1179 16.483C91.8527 16.9489 91.4342 17.3182 90.8622 17.5909C90.2902 17.8636 89.5459 18 88.6293 18H84.4247ZM85.8338 16.75H88.6293C89.5497 16.75 90.2031 16.572 90.5895 16.2159C90.9796 15.8561 91.1747 15.4205 91.1747 14.9091C91.1747 14.5152 91.0743 14.1515 90.8736 13.8182C90.6728 13.4811 90.3868 13.2121 90.0156 13.0114C89.6444 12.8068 89.205 12.7045 88.6974 12.7045H85.8338V16.75ZM85.8338 11.4773H88.4474C88.8717 11.4773 89.2543 11.3939 89.5952 11.2273C89.9399 11.0606 90.2126 10.8258 90.4134 10.5227C90.6179 10.2197 90.7202 9.86364 90.7202 9.45455C90.7202 8.94318 90.5421 8.50947 90.1861 8.15341C89.83 7.79356 89.2656 7.61364 88.4929 7.61364H85.8338V11.4773ZM96.9048 18.2045C96.3518 18.2045 95.8499 18.1004 95.3991 17.892C94.9484 17.6799 94.5904 17.375 94.3253 16.9773C94.0601 16.5758 93.9276 16.0909 93.9276 15.5227C93.9276 15.0227 94.026 14.6174 94.223 14.3068C94.42 13.9924 94.6832 13.7462 95.0128 13.5682C95.3423 13.3902 95.706 13.2576 96.1037 13.1705C96.5052 13.0795 96.9086 13.0076 97.3139 12.9545C97.8442 12.8864 98.2741 12.8352 98.6037 12.8011C98.937 12.7633 99.1795 12.7008 99.331 12.6136C99.4863 12.5265 99.5639 12.375 99.5639 12.1591V12.1136C99.5639 11.553 99.4105 11.1174 99.1037 10.8068C98.8007 10.4962 98.3404 10.3409 97.723 10.3409C97.0829 10.3409 96.581 10.4811 96.2173 10.7614C95.8537 11.0417 95.598 11.3409 95.4503 11.6591L94.1776 11.2045C94.4048 10.6742 94.7079 10.2614 95.0866 9.96591C95.4692 9.66667 95.8859 9.45833 96.3366 9.34091C96.7912 9.2197 97.2382 9.15909 97.6776 9.15909C97.9579 9.15909 98.2798 9.19318 98.6435 9.26136C99.0109 9.32576 99.3651 9.46023 99.706 9.66477C100.051 9.86932 100.337 10.178 100.564 10.5909C100.791 11.0038 100.905 11.5568 100.905 12.25V18H99.5639V16.8182H99.4957C99.4048 17.0076 99.2533 17.2102 99.0412 17.4261C98.8291 17.642 98.5469 17.8258 98.1946 17.9773C97.8423 18.1288 97.4124 18.2045 96.9048 18.2045ZM97.1094 17C97.6397 17 98.0866 16.8958 98.4503 16.6875C98.8177 16.4792 99.0942 16.2102 99.2798 15.8807C99.4692 15.5511 99.5639 15.2045 99.5639 14.8409V13.6136C99.5071 13.6818 99.3821 13.7443 99.1889 13.8011C98.9995 13.8542 98.7798 13.9015 98.5298 13.9432C98.2836 13.9811 98.0431 14.0152 97.8082 14.0455C97.5772 14.072 97.3897 14.0947 97.2457 14.1136C96.8973 14.1591 96.5715 14.233 96.2685 14.3352C95.9692 14.4337 95.7268 14.5833 95.5412 14.7841C95.3594 14.9811 95.2685 15.25 95.2685 15.5909C95.2685 16.0568 95.4408 16.4091 95.7855 16.6477C96.134 16.8826 96.5753 17 97.1094 17ZM104.381 12.75V18H103.04V9.27273H104.335V10.6364H104.449C104.653 10.1932 104.964 9.83712 105.381 9.56818C105.797 9.29545 106.335 9.15909 106.994 9.15909C107.585 9.15909 108.102 9.2803 108.545 9.52273C108.989 9.76136 109.333 10.125 109.58 10.6136C109.826 11.0985 109.949 11.7121 109.949 12.4545V18H108.608V12.5455C108.608 11.8598 108.43 11.3258 108.074 10.9432C107.718 10.5568 107.229 10.3636 106.608 10.3636C106.18 10.3636 105.797 10.4564 105.46 10.642C105.127 10.8277 104.864 11.0985 104.67 11.4545C104.477 11.8106 104.381 12.2424 104.381 12.75ZM113.337 14.8182L113.314 13.1591H113.587L117.405 9.27273H119.064L114.996 13.3864H114.882L113.337 14.8182ZM112.087 18V6.36364H113.428V18H112.087ZM117.632 18L114.223 13.6818L115.178 12.75L119.337 18H117.632Z" fill="#003D7A"/>
    <path d="M53.0568 36V27.2727H58.3239V28.2102H54.1136V31.1591H58.0511V32.0966H54.1136V35.0625H58.392V36H53.0568ZM63.8423 31.1676V32.1051H60.0241V31.1676H63.8423ZM65.7482 36V27.2727H66.805V35.0625H70.8619V36H65.7482ZM75.1062 36.1364C74.4755 36.1364 73.9315 35.9972 73.4741 35.7188C73.0195 35.4375 72.6687 35.0455 72.4215 34.5426C72.1772 34.0369 72.055 33.4489 72.055 32.7784C72.055 32.108 72.1772 31.517 72.4215 31.0057C72.6687 30.4915 73.0124 30.0909 73.4528 29.804C73.896 29.5142 74.413 29.3693 75.0039 29.3693C75.3448 29.3693 75.6815 29.4261 76.0138 29.5398C76.3462 29.6534 76.6488 29.8381 76.9215 30.0938C77.1942 30.3466 77.4116 30.6818 77.5735 31.0994C77.7354 31.517 77.8164 32.0312 77.8164 32.642V33.0682H72.771V32.1989H76.7937C76.7937 31.8295 76.7198 31.5 76.5721 31.2102C76.4272 30.9205 76.2198 30.6918 75.9499 30.5241C75.6829 30.3565 75.3675 30.2727 75.0039 30.2727C74.6033 30.2727 74.2567 30.3722 73.9641 30.571C73.6744 30.767 73.4513 31.0227 73.2951 31.3381C73.1388 31.6534 73.0607 31.9915 73.0607 32.3523V32.9318C73.0607 33.4261 73.146 33.8452 73.3164 34.1889C73.4897 34.5298 73.7298 34.7898 74.0366 34.9688C74.3434 35.1449 74.6999 35.233 75.1062 35.233C75.3704 35.233 75.609 35.196 75.8221 35.1222C76.038 35.0455 76.2241 34.9318 76.3803 34.7812C76.5366 34.6278 76.6573 34.4375 76.7425 34.2102L77.7141 34.483C77.6119 34.8125 77.44 35.1023 77.1985 35.3523C76.957 35.5994 76.6587 35.7926 76.3036 35.9318C75.9485 36.0682 75.5494 36.1364 75.1062 36.1364ZM81.2724 36.1534C80.8576 36.1534 80.4812 36.0753 80.1431 35.919C79.805 35.7599 79.5366 35.5312 79.3377 35.233C79.1388 34.9318 79.0394 34.5682 79.0394 34.142C79.0394 33.767 79.1133 33.4631 79.261 33.2301C79.4087 32.9943 79.6062 32.8097 79.8533 32.6761C80.1005 32.5426 80.3732 32.4432 80.6715 32.3778C80.9727 32.3097 81.2752 32.2557 81.5792 32.2159C81.9769 32.1648 82.2994 32.1264 82.5465 32.1009C82.7965 32.0724 82.9783 32.0256 83.092 31.9602C83.2085 31.8949 83.2667 31.7812 83.2667 31.6193V31.5852C83.2667 31.1648 83.1516 30.8381 82.9215 30.6051C82.6942 30.3722 82.3491 30.2557 81.886 30.2557C81.4059 30.2557 81.0295 30.3608 80.7567 30.571C80.484 30.7812 80.2923 31.0057 80.1815 31.2443L79.2269 30.9034C79.3974 30.5057 79.6246 30.196 79.9087 29.9744C80.1957 29.75 80.5082 29.5937 80.8462 29.5057C81.1871 29.4148 81.5224 29.3693 81.8519 29.3693C82.0621 29.3693 82.3036 29.3949 82.5763 29.446C82.8519 29.4943 83.1175 29.5952 83.3732 29.7486C83.6317 29.902 83.8462 30.1335 84.0167 30.4432C84.1871 30.7528 84.2724 31.1676 84.2724 31.6875V36H83.2667V35.1136H83.2156C83.1474 35.2557 83.0337 35.4077 82.8746 35.5696C82.7156 35.7315 82.5039 35.8693 82.2397 35.983C81.9755 36.0966 81.6531 36.1534 81.2724 36.1534ZM81.4258 35.25C81.8235 35.25 82.1587 35.1719 82.4315 35.0156C82.707 34.8594 82.9144 34.6577 83.0536 34.4105C83.1957 34.1634 83.2667 33.9034 83.2667 33.6307V32.7102C83.2241 32.7614 83.1303 32.8082 82.9854 32.8509C82.8434 32.8906 82.6786 32.9261 82.4911 32.9574C82.3065 32.9858 82.1261 33.0114 81.9499 33.0341C81.7766 33.054 81.636 33.071 81.5281 33.0852C81.2667 33.1193 81.0224 33.1747 80.7951 33.2514C80.5707 33.3253 80.3888 33.4375 80.2496 33.5881C80.1133 33.7358 80.0451 33.9375 80.0451 34.1932C80.0451 34.5426 80.1744 34.8068 80.4329 34.9858C80.6942 35.1619 81.0252 35.25 81.4258 35.25ZM86.108 36V29.4545H87.0795V30.4432H87.1477C87.267 30.1193 87.483 29.8565 87.7955 29.6548C88.108 29.4531 88.4602 29.3523 88.8523 29.3523C88.9261 29.3523 89.0185 29.3537 89.1293 29.3565C89.2401 29.3594 89.3239 29.3636 89.3807 29.3693V30.392C89.3466 30.3835 89.2685 30.3707 89.1463 30.3537C89.027 30.3338 88.9006 30.3239 88.767 30.3239C88.4489 30.3239 88.1648 30.3906 87.9148 30.5241C87.6676 30.6548 87.4716 30.8366 87.3267 31.0696C87.1847 31.2997 87.1136 31.5625 87.1136 31.858V36H86.108ZM91.5785 32.0625V36H90.5728V29.4545H91.5444V30.4773H91.6296C91.783 30.1449 92.016 29.8778 92.3285 29.6761C92.641 29.4716 93.0444 29.3693 93.5387 29.3693C93.9819 29.3693 94.3697 29.4602 94.7021 29.642C95.0344 29.821 95.293 30.0938 95.4776 30.4602C95.6623 30.8239 95.7546 31.2841 95.7546 31.8409V36H94.7489V31.9091C94.7489 31.3949 94.6154 30.9943 94.3484 30.7074C94.0813 30.4176 93.7148 30.2727 93.2489 30.2727C92.9279 30.2727 92.641 30.3423 92.3881 30.4815C92.1381 30.6207 91.9407 30.8239 91.7958 31.0909C91.6509 31.358 91.5785 31.6818 91.5785 32.0625ZM97.5923 36V29.4545H98.598V36H97.5923ZM98.1037 28.3636C97.9077 28.3636 97.7386 28.2969 97.5966 28.1634C97.4574 28.0298 97.3878 27.8693 97.3878 27.6818C97.3878 27.4943 97.4574 27.3338 97.5966 27.2003C97.7386 27.0668 97.9077 27 98.1037 27C98.2997 27 98.4673 27.0668 98.6065 27.2003C98.7486 27.3338 98.8196 27.4943 98.8196 27.6818C98.8196 27.8693 98.7486 28.0298 98.6065 28.1634C98.4673 28.2969 98.2997 28.3636 98.1037 28.3636ZM101.446 32.0625V36H100.44V29.4545H101.412V30.4773H101.497C101.65 30.1449 101.883 29.8778 102.196 29.6761C102.508 29.4716 102.912 29.3693 103.406 29.3693C103.849 29.3693 104.237 29.4602 104.569 29.642C104.902 29.821 105.16 30.0938 105.345 30.4602C105.529 30.8239 105.622 31.2841 105.622 31.8409V36H104.616V31.9091C104.616 31.3949 104.483 30.9943 104.216 30.7074C103.949 30.4176 103.582 30.2727 103.116 30.2727C102.795 30.2727 102.508 30.3423 102.255 30.4815C102.005 30.6207 101.808 30.8239 101.663 31.0909C101.518 31.358 101.446 31.6818 101.446 32.0625ZM110.102 38.5909C109.616 38.5909 109.198 38.5284 108.849 38.4034C108.499 38.2812 108.208 38.1193 107.975 37.9176C107.745 37.7188 107.562 37.5057 107.425 37.2784L108.227 36.7159C108.317 36.8352 108.433 36.9716 108.572 37.125C108.711 37.2812 108.901 37.4162 109.143 37.5298C109.387 37.6463 109.707 37.7045 110.102 37.7045C110.63 37.7045 111.066 37.5767 111.41 37.321C111.754 37.0653 111.925 36.6648 111.925 36.1193V34.7898H111.84C111.766 34.9091 111.661 35.0568 111.525 35.233C111.391 35.4062 111.198 35.5611 110.945 35.6974C110.695 35.831 110.357 35.8977 109.931 35.8977C109.403 35.8977 108.928 35.7727 108.508 35.5227C108.09 35.2727 107.759 34.9091 107.515 34.4318C107.273 33.9545 107.153 33.375 107.153 32.6932C107.153 32.0227 107.271 31.4389 107.506 30.9418C107.742 30.4418 108.07 30.0554 108.491 29.7827C108.911 29.5071 109.397 29.3693 109.948 29.3693C110.374 29.3693 110.712 29.4403 110.962 29.5824C111.215 29.7216 111.408 29.8807 111.542 30.0597C111.678 30.2358 111.783 30.3807 111.857 30.4943H111.96V29.4545H112.931V36.1875C112.931 36.75 112.803 37.2074 112.548 37.5597C112.295 37.9148 111.954 38.1747 111.525 38.3395C111.099 38.5071 110.624 38.5909 110.102 38.5909ZM110.067 34.9943C110.471 34.9943 110.812 34.902 111.09 34.7173C111.369 34.5327 111.58 34.267 111.725 33.9205C111.87 33.5739 111.942 33.1591 111.942 32.6761C111.942 32.2045 111.871 31.7884 111.729 31.4276C111.587 31.0668 111.377 30.7841 111.099 30.5795C110.82 30.375 110.477 30.2727 110.067 30.2727C109.641 30.2727 109.286 30.3807 109.002 30.5966C108.721 30.8125 108.509 31.1023 108.367 31.4659C108.228 31.8295 108.158 32.233 108.158 32.6761C108.158 33.1307 108.229 33.5327 108.371 33.8821C108.516 34.2287 108.729 34.5014 109.011 34.7003C109.295 34.8963 109.647 34.9943 110.067 34.9943Z" fill="#4A5565"/>
    <defs>
        <linearGradient id="paint0_linear_1_27" x1="20" y1="0" x2="20" y2="40" gradientUnits="userSpaceOnUse">
            <stop stop-color="#003D7A"/>
            <stop offset="1" stop-color="#0052A3"/>
        </linearGradient>
    </defs>
</svg>
