<svg xmlns="http://www.w3.org/2000/svg" width="49" height="46" viewBox="0 0 49 46" fill="none">
  <path d="M3.23663 11.8379C3.23663 7.41967 6.81835 3.83795 11.2366 3.83795H37.6669C42.0852 3.83795 45.6669 7.41967 45.6669 11.8379V34.1621C45.6669 38.5803 42.0852 42.1621 37.6669 42.1621H11.2366C6.81835 42.1621 3.23663 38.5803 3.23663 34.1621V11.8379Z" fill="#FAFAFA" style="fill:#FAFAFA;fill:color(display-p3 0.9804 0.9804 0.9804);fill-opacity:1;"/>
  <path fill-rule="evenodd" clip-rule="evenodd" d="M8.02713 5.89103C6.51529 5.89103 5.2897 7.11175 5.2897 8.61759V39.973C5.2897 40.0186 5.29082 40.0639 5.29304 40.109L9.27492 36.9056H15.6971L18.8017 31.4083L25.4717 32.8069L30.7782 31.4856L35.2328 27.0487L43.6138 25.3792V8.61759C43.6138 7.11175 42.3882 5.89103 40.8764 5.89103H8.02713Z" fill="url(#paint0_linear_7829_228)" style=""/>
  <path d="M10.0802 16.8408H21.7143V19.5782H10.0802V16.8408Z" fill="#D9D9D9" style="fill:#D9D9D9;fill:color(display-p3 0.8510 0.8510 0.8510);fill-opacity:1;"/>
  <path d="M10.0802 22.3156H29.2423V25.0531H10.0802V22.3156Z" fill="#D9D9D9" style="fill:#D9D9D9;fill:color(display-p3 0.8510 0.8510 0.8510);fill-opacity:1;"/>
  <path d="M6.84846 6.72739C7.99199 2.45966 12.3787 -0.072996 16.6464 1.07054L42.1761 7.9112C46.4438 9.05473 48.9765 13.4414 47.8329 17.7092L42.055 39.2726C40.9115 43.5403 36.5248 46.073 32.2571 44.9294L6.7274 38.0888C2.45967 36.9452 -0.0729803 32.5585 1.07055 28.2908L6.84846 6.72739Z" fill="#FAFAFA" style="fill:#FAFAFA;fill:color(display-p3 0.9804 0.9804 0.9804);fill-opacity:1;"/>
  <path fill-rule="evenodd" clip-rule="evenodd" d="M13.0149 2.22298C11.5546 1.83169 10.0548 2.69361 9.66506 4.14814L1.54969 34.4351C1.53788 34.4792 1.52724 34.5233 1.51772 34.5674L6.19301 32.5037L12.3964 34.1659L16.818 29.6595L22.8987 32.7367L28.3664 32.8338L33.8176 29.7011L42.3451 30.2576L46.6833 14.0671C47.073 12.6126 46.2052 11.1163 44.7448 10.725L13.0149 2.22298Z" fill="url(#paint1_linear_7829_228)" style=""/>
  <path d="M9.6604 13.9367C9.85605 13.2065 10.6066 12.7732 11.3367 12.9688L19.9303 15.2715C20.6604 15.4671 21.0937 16.2176 20.8981 16.9478C20.7024 17.678 19.9519 18.1113 19.2218 17.9156L10.6282 15.613C9.89807 15.4174 9.46475 14.6668 9.6604 13.9367Z" fill="#737373" style="fill:#737373;fill:color(display-p3 0.4510 0.4510 0.4510);fill-opacity:1;"/>
  <path d="M22.3411 17.3346C22.5368 16.6044 23.2873 16.1711 24.0175 16.3668L25.1195 16.662C25.8496 16.8577 26.2829 17.6082 26.0873 18.3384C25.8916 19.0685 25.1411 19.5018 24.411 19.3062L23.309 19.0109C22.5788 18.8153 22.1455 18.0647 22.3411 17.3346Z" fill="#737373" style="fill:#737373;fill:color(display-p3 0.4510 0.4510 0.4510);fill-opacity:1;"/>
  <path d="M8.24365 19.225C8.4393 18.4948 9.18981 18.0615 9.91998 18.2571L25.7849 22.5081C26.5151 22.7038 26.9484 23.4543 26.7528 24.1845C26.5571 24.9146 25.8066 25.348 25.0764 25.1523L9.21148 20.9013C8.48131 20.7057 8.048 19.9551 8.24365 19.225Z" fill="#737373" style="fill:#737373;fill:color(display-p3 0.4510 0.4510 0.4510);fill-opacity:1;"/>
  <path d="M35.4574 21.5886C35.1708 21.5118 34.9363 21.3798 34.754 21.1926C34.571 21.0079 34.4439 20.7954 34.3728 20.5549C34.3035 20.3177 34.2952 20.0802 34.3478 19.8425L32.8605 19.4439C32.6616 19.3907 32.5189 19.2985 32.4323 19.1673C32.3456 19.0362 32.3241 18.8892 32.3677 18.7266C32.421 18.5277 32.5431 18.3612 32.7341 18.2269C32.9276 18.0934 33.1294 17.9703 33.3394 17.8578C33.4501 17.7961 33.5475 17.706 33.6319 17.5874C33.7162 17.4689 33.7922 17.3301 33.8597 17.1711C33.9298 17.0127 33.9985 16.8443 34.0657 16.6658C34.2048 16.2188 34.3734 15.8322 34.5715 15.5061C34.7696 15.18 35.0024 14.9255 35.2701 14.7426C35.5384 14.5572 35.8457 14.4485 36.1918 14.4167C36.3325 14.1915 36.5214 14.0235 36.7586 13.9127C36.9985 13.8026 37.2553 13.7842 37.529 13.8576C37.64 13.8873 37.7408 13.9295 37.8313 13.9842C37.9244 14.0396 38.0079 14.1049 38.0819 14.1801C38.0779 14.1845 38.0752 14.1894 38.0738 14.1945C38.0725 14.1997 38.0694 14.2058 38.0648 14.2129C38.05 14.2061 38.0297 14.1993 38.0038 14.1924C37.8721 14.1571 37.7458 14.1537 37.6247 14.1821C37.5069 14.2087 37.4003 14.2604 37.305 14.3372C37.2096 14.4141 37.1332 14.5084 37.0755 14.6203C36.9832 14.6343 36.8952 14.6786 36.8116 14.753C36.7313 14.8256 36.6709 14.927 36.6305 15.0573C36.6114 15.1076 36.5856 15.1422 36.5528 15.1611C36.5234 15.1781 36.4853 15.1859 36.4386 15.1844C36.2311 15.1842 36.0305 15.2356 35.8369 15.3387C35.6439 15.4392 35.4599 15.6196 35.285 15.88C35.1101 16.1403 34.9509 16.5072 34.8074 16.9808C34.754 17.1491 34.6962 17.308 34.634 17.4574C34.5725 17.6042 34.5074 17.739 34.4385 17.8617C34.3729 17.9825 34.3031 18.0883 34.2289 18.1791C34.1573 18.2707 34.0796 18.3439 33.9956 18.3989C33.9208 18.4508 33.8425 18.5004 33.7607 18.5477C33.6821 18.5931 33.6088 18.6343 33.5407 18.6714C33.4759 18.7066 33.4193 18.7371 33.3709 18.7629L33.3605 18.8016L38.6514 20.2193L38.6618 20.1806C38.6353 20.1348 38.6029 20.0804 38.5644 20.0175C38.5266 19.952 38.485 19.88 38.4396 19.8014C38.3949 19.7202 38.3532 19.6385 38.3144 19.5561C38.2668 19.4548 38.2314 19.3388 38.2084 19.2081C38.1885 19.0754 38.1855 18.9266 38.1993 18.7614C38.2138 18.5937 38.2471 18.4075 38.2992 18.2029C38.3151 18.1435 38.3297 18.0837 38.3431 18.0237C38.359 17.9643 38.3736 17.9045 38.3869 17.8444C38.4703 17.9775 38.576 18.0736 38.704 18.1328C38.8353 18.1902 38.9757 18.2139 39.125 18.2041C39.1167 18.2351 39.1084 18.2661 39.1001 18.2971C39.0943 18.3287 39.0883 18.3617 39.0819 18.396C39.0491 18.5699 39.0337 18.7512 39.0358 18.9399C39.0385 19.1261 39.0789 19.285 39.1571 19.4166C39.2827 19.6191 39.3947 19.8262 39.4929 20.038C39.5912 20.2497 39.6137 20.455 39.5604 20.6538C39.5168 20.8165 39.4247 20.933 39.2841 21.0033C39.1461 21.0742 38.9777 21.083 38.7788 21.0298L37.2876 20.6302C37.2143 20.8624 37.0871 21.0636 36.9059 21.2337C36.7266 21.407 36.5115 21.5279 36.2607 21.5963C36.0118 21.668 35.7441 21.6654 35.4574 21.5886ZM35.6235 20.9689C35.8275 21.0236 36.0133 21.0014 36.181 20.9024C36.3505 20.8067 36.4715 20.6495 36.5439 20.4309L35.0953 20.0428C35.0487 20.2683 35.0737 20.4646 35.1701 20.6315C35.2684 20.8018 35.4195 20.9143 35.6235 20.9689ZM37.5617 15.8424C37.5023 15.8265 37.4566 15.7907 37.4244 15.735C37.3949 15.6801 37.3877 15.6242 37.4029 15.5674L37.5628 14.9709C37.5794 14.9089 37.6139 14.8628 37.6663 14.8326C37.7219 14.8004 37.7794 14.7923 37.8388 14.8082C37.9034 14.8255 37.9504 14.8617 37.98 14.9166C38.0128 14.9697 38.0209 15.0272 38.0043 15.0892L37.8445 15.6857C37.8293 15.7425 37.7938 15.787 37.7382 15.8191C37.6851 15.8519 37.6263 15.8597 37.5617 15.8424ZM38.2663 16.7452C38.2069 16.7293 38.1608 16.6948 38.128 16.6417C38.0959 16.5861 38.0881 16.5273 38.1047 16.4653L38.6205 14.5403C38.6371 14.4783 38.6716 14.4322 38.724 14.4019C38.7797 14.3698 38.8385 14.362 38.9004 14.3787C38.9624 14.3953 39.0082 14.431 39.0377 14.486C39.0706 14.5391 39.0787 14.5966 39.0621 14.6586L38.5463 16.5836C38.5296 16.6456 38.4935 16.6926 38.4379 16.7248C38.3855 16.755 38.3283 16.7618 38.2663 16.7452ZM38.9847 17.5812C38.9227 17.5646 38.8766 17.5301 38.8464 17.4777C38.8161 17.4253 38.8093 17.3681 38.8259 17.3062L39.6634 14.1804C39.6801 14.1184 39.7149 14.071 39.768 14.0382C39.821 14.0054 39.8786 13.9973 39.9405 14.0139C40.0025 14.0305 40.0483 14.0663 40.0778 14.1212C40.11 14.1769 40.1177 14.2357 40.1011 14.2977L39.2636 17.4234C39.2477 17.4828 39.2119 17.5286 39.1562 17.5607C39.1038 17.591 39.0467 17.5978 38.9847 17.5812ZM39.9822 17.3752C39.9203 17.3586 39.8742 17.3241 39.8439 17.2717C39.8137 17.2193 39.8072 17.1609 39.8245 17.0963L40.4264 14.8498C40.4424 14.7904 40.4765 14.7456 40.5289 14.7154C40.582 14.6825 40.6395 14.6744 40.7015 14.691C40.7634 14.7076 40.8092 14.7434 40.8388 14.7984C40.8716 14.8515 40.88 14.9077 40.8641 14.9671L40.2622 17.2136C40.2449 17.2781 40.2087 17.3252 40.1538 17.3548C40.1014 17.385 40.0442 17.3918 39.9822 17.3752ZM41.0356 16.9766C40.971 16.9593 40.9223 16.9241 40.8895 16.8711C40.8599 16.8161 40.8535 16.7576 40.8701 16.6957L41.1306 15.7235C41.1472 15.6615 41.1817 15.6154 41.234 15.5851C41.2897 15.553 41.3498 15.5456 41.4144 15.5629C41.4763 15.5795 41.5221 15.6153 41.5517 15.6702C41.5819 15.7226 41.5887 15.7798 41.5721 15.8418L41.3116 16.814C41.2943 16.8785 41.2595 16.9259 41.2071 16.9562C41.1547 16.9864 41.0975 16.9932 41.0356 16.9766Z" fill="#737373" style="fill:#737373;fill:color(display-p3 0.4510 0.4510 0.4510);fill-opacity:1;"/>
  <defs>
    <linearGradient id="paint0_linear_7829_228" x1="22.762" y1="11.4539" x2="22.762" y2="48.7567" gradientUnits="userSpaceOnUse">
      <stop offset="0.239583" stop-color="#E4E4E7" style="stop-color:#E4E4E7;stop-color:color(display-p3 0.8941 0.8941 0.9059);stop-opacity:1;"/>
      <stop offset="1" stop-color="white" stop-opacity="0.02" style="stop-color:white;stop-opacity:0.02;"/>
    </linearGradient>
    <linearGradient id="paint1_linear_7829_228" x1="22.762" y1="11.4539" x2="22.762" y2="48.7567" gradientUnits="userSpaceOnUse">
      <stop offset="0.239583" stop-color="#E4E4E7" style="stop-color:#E4E4E7;stop-color:color(display-p3 0.8941 0.8941 0.9059);stop-opacity:1;"/>
      <stop offset="1" stop-color="white" stop-opacity="0.02" style="stop-color:white;stop-opacity:0.02;"/>
    </linearGradient>
  </defs>
</svg>