<svg width="61" height="44" viewBox="0 0 61 44" fill="none" xmlns="http://www.w3.org/2000/svg">
<path d="M11.493 38C7.85434 38 6 36.2097 6 32.629V11.3884C6 7.80771 7.85434 6 11.493 6H41.7747C45.4309 6 47.2678 7.80771 47.2678 11.3884V13.7697C46.3056 13.3525 45.4309 13.2309 44.4513 13.2135V11.5448C44.4513 9.7371 43.4541 8.79848 41.7222 8.79848H11.5455C9.79614 8.79848 8.81649 9.7371 8.81649 11.5448V32.4726C8.81649 34.2803 9.79614 35.2015 11.5455 35.2015H31.6109C31.4184 36.1923 31.4359 37.1831 31.8033 38H11.493ZM12.7526 32.8376C11.7729 32.8376 11.2131 32.264 11.2131 31.2732V12.7442C11.2131 11.7534 11.7729 11.1798 12.7526 11.1798H40.5152C41.4948 11.1798 42.0546 11.7534 42.0546 12.7442V13.6828C39.1332 14.6388 36.9989 17.5589 37.0164 20.9484C37.0164 23.4514 38.1535 25.6589 39.9029 27.032C36.5091 28.0228 33.6751 30.2129 32.468 32.8376H12.7526ZM44.4338 26.4411C41.7397 26.4411 39.3956 24.0424 39.3956 20.9484C39.3956 17.8718 41.7397 15.56 44.4338 15.56C47.1103 15.56 49.4545 17.837 49.4545 20.9136C49.4545 24.0424 47.1103 26.4411 44.4338 26.4411ZM35.9843 38C34.6548 38 33.8501 37.3916 33.8501 36.3487C33.8501 33.1157 37.8911 28.6659 44.4338 28.6659C50.9415 28.6659 55 33.1157 55 36.3487C55 37.3916 54.1778 38 52.8658 38H35.9843Z" fill="url(#paint0_radial_7833_1897)" style=""/>
<path d="M7.14551 21.3857V11.8643C7.14551 10.2266 7.74219 9.60449 9.13867 9.02051C10.4717 8.46191 15.1816 6.76074 16.4766 6.39258C16.9463 6.26562 17.5176 6.15137 18 6.15137C18.4824 6.15137 19.041 6.25293 19.5234 6.39258C20.8184 6.82422 25.5156 8.44922 26.8613 9.02051C28.2578 9.61719 28.8545 10.2266 28.8545 11.8643V21.3857C28.8545 26.0068 26.2773 27.9111 18.9141 31.8467C18.584 32.0244 18.2285 32.1133 18 32.1133C17.7588 32.1133 17.4033 32.0244 17.0732 31.8467C9.73535 27.8984 7.14551 26.0068 7.14551 21.3857ZM9.81152 20.9033C9.81152 24.4834 11.5508 25.3594 17.3018 28.8887C17.6699 29.1172 17.835 29.168 18 29.168V18.834H26.1885V12.2832C26.1885 11.8262 26.0869 11.623 25.7314 11.4834C23.8652 10.8105 20.3105 9.56641 18.7744 8.96973C18.4316 8.85547 18.2031 8.80469 17.9873 8.80469V18.834H9.81152V20.9033Z" fill="url(#paint1_radial_7833_1897)" style=""/>
<defs>
<radialGradient id="paint0_radial_7833_1897" cx="0" cy="0" r="1" gradientUnits="userSpaceOnUse" gradientTransform="translate(41.2095 28.4034) rotate(-145.867) scale(26.6166 24.5107)">
<stop offset="0.0103718" stop-color="#BDBDBD" style="stop-color:#BDBDBD;stop-color:color(display-p3 0.7410 0.7410 0.7410);stop-opacity:1;"/>
<stop offset="1" stop-color="#BDBDBD" stop-opacity="0" style="stop-color:none;stop-opacity:0;"/>
</radialGradient>
<radialGradient id="paint1_radial_7833_1897" cx="0" cy="0" r="1" gradientUnits="userSpaceOnUse" gradientTransform="translate(10.867 6.15137) rotate(-46.8773) scale(19.0551 25.1259)">
<stop stop-color="#FFC321" style="stop-color:#FFC321;stop-color:color(display-p3 1.0000 0.7652 0.1295);stop-opacity:1;"/>
<stop offset="1" stop-color="#0069B9" style="stop-color:#0069B9;stop-color:color(display-p3 0.0000 0.4118 0.7255);stop-opacity:1;"/>
</radialGradient>
</defs>
</svg>
