<svg width="61" height="44" viewBox="0 0 61 44" fill="none" xmlns="http://www.w3.org/2000/svg">
<path d="M11.493 38C7.85434 38 6 36.2097 6 32.629V11.3884C6 7.80771 7.85434 6 11.493 6H41.7747C45.4309 6 47.2678 7.80771 47.2678 11.3884V13.7697C46.3056 13.3525 45.4309 13.2309 44.4513 13.2135V11.5448C44.4513 9.7371 43.4541 8.79848 41.7222 8.79848H11.5455C9.79614 8.79848 8.81649 9.7371 8.81649 11.5448V32.4726C8.81649 34.2803 9.79614 35.2015 11.5455 35.2015H31.6109C31.4184 36.1923 31.4359 37.1831 31.8033 38H11.493ZM12.7526 32.8376C11.7729 32.8376 11.2131 32.264 11.2131 31.2732V12.7442C11.2131 11.7534 11.7729 11.1798 12.7526 11.1798H40.5152C41.4948 11.1798 42.0546 11.7534 42.0546 12.7442V13.6828C39.1332 14.6388 36.9989 17.5589 37.0164 20.9484C37.0164 23.4514 38.1535 25.6589 39.9029 27.032C36.5091 28.0228 33.6751 30.2129 32.468 32.8376H12.7526ZM44.4338 26.4411C41.7397 26.4411 39.3956 24.0424 39.3956 20.9484C39.3956 17.8718 41.7397 15.56 44.4338 15.56C47.1103 15.56 49.4545 17.837 49.4545 20.9136C49.4545 24.0424 47.1103 26.4411 44.4338 26.4411ZM35.9843 38C34.6548 38 33.8501 37.3916 33.8501 36.3487C33.8501 33.1157 37.8911 28.6659 44.4338 28.6659C50.9415 28.6659 55 33.1157 55 36.3487C55 37.3916 54.1778 38 52.8658 38H35.9843Z" fill="url(#paint0_radial_7833_1890)" style=""/>
<defs>
<radialGradient id="paint0_radial_7833_1890" cx="0" cy="0" r="1" gradientUnits="userSpaceOnUse" gradientTransform="translate(30.2966 6) rotate(90) scale(43.7815 40.6729)">
<stop offset="0.0103718" stop-color="#BDBDBD" style="stop-color:#BDBDBD;stop-color:color(display-p3 0.7410 0.7410 0.7410);stop-opacity:1;"/>
<stop offset="1" stop-color="#BDBDBD" stop-opacity="0" style="stop-color:none;stop-opacity:0;"/>
</radialGradient>
</defs>
</svg>
