<svg width="80" height="80" viewBox="0 0 80 80" fill="none" xmlns="http://www.w3.org/2000/svg">
    <path d="M0 16C0 7.16344 7.16344 0 16 0H64C72.8366 0 80 7.16344 80 16V64C80 72.8366 72.8366 80 64 80H16C7.16344 80 0 72.8366 0 64V16Z" fill="url(#paint0_linear_10_164)"/>
    <path d="M58.8401 37.844C59.1981 37.6861 59.502 37.4266 59.7139 37.0976C59.9259 36.7687 60.0368 36.3848 60.0327 35.9935C60.0287 35.6022 59.9099 35.2207 59.6912 34.8962C59.4724 34.5717 59.1633 34.3185 58.8021 34.168L41.6601 26.36C41.139 26.1223 40.5729 25.9993 40.0001 25.9993C39.4273 25.9993 38.8612 26.1223 38.3401 26.36L21.2001 34.16C20.844 34.316 20.5411 34.5723 20.3284 34.8976C20.1157 35.223 20.0024 35.6033 20.0024 35.992C20.0024 36.3807 20.1157 36.761 20.3284 37.0864C20.5411 37.4117 20.844 37.6681 21.2001 37.824L38.3401 45.64C38.8612 45.8777 39.4273 46.0007 40.0001 46.0007C40.5729 46.0007 41.139 45.8777 41.6601 45.64L58.8401 37.844Z" stroke="white" stroke-width="4" stroke-linecap="round" stroke-linejoin="round"/>
    <path d="M60 36V48" stroke="white" stroke-width="4" stroke-linecap="round" stroke-linejoin="round"/>
    <path d="M28 41V48C28 49.5913 29.2643 51.1174 31.5147 52.2426C33.7652 53.3679 36.8174 54 40 54C43.1826 54 46.2348 53.3679 48.4853 52.2426C50.7357 51.1174 52 49.5913 52 48V41" stroke="white" stroke-width="4" stroke-linecap="round" stroke-linejoin="round"/>
    <defs>
        <linearGradient id="paint0_linear_10_164" x1="40" y1="0" x2="40" y2="80" gradientUnits="userSpaceOnUse">
            <stop stop-color="#003D7A"/>
            <stop offset="1" stop-color="#0052A3"/>
        </linearGradient>
    </defs>
</svg>
