<svg width="16" height="17" viewBox="0 0 16 17" fill="none" xmlns="http://www.w3.org/2000/svg">
<path d="M7.50724 11.4825C6.74314 11.3325 6.18613 11.0183 5.79337 10.6184C3.99381 8.826 4.00095 6.29091 5.78623 4.51277L8.2999 1.99196C10.078 0.213821 12.606 0.199539 14.4056 2.00624C16.2051 3.79866 16.2051 6.3409 14.4127 8.11189L12.406 10.1185C12.5631 9.49727 12.4703 8.7903 12.2204 8.21901L13.313 7.12642C14.4912 5.94814 14.4984 4.2914 13.3058 3.09883C12.1275 1.92055 10.4708 1.92055 9.28538 3.10597L6.88596 5.49825C5.70768 6.67653 5.70768 8.34041 6.89311 9.52583C7.30729 9.94002 7.90714 10.2114 8.69981 10.2899L7.50724 11.4825ZM8.48557 5.36256C9.24967 5.50539 9.80668 5.8196 10.1994 6.2195C11.999 8.01192 11.9919 10.547 10.2137 12.3251L7.70005 14.846C5.91477 16.6241 3.38682 16.6384 1.58726 14.8317C-0.212302 13.0393 -0.212302 10.497 1.58012 8.72603L3.58677 6.71938C3.42967 7.34065 3.5225 8.04762 3.77244 8.61891L2.67985 9.7115C1.50157 10.8898 1.50157 12.5465 2.68699 13.7391C3.87241 14.9174 5.52915 14.9174 6.70744 13.7391L9.10685 11.3397C10.2851 10.1614 10.2851 8.49751 9.09971 7.31209C8.68552 6.8979 8.08567 6.63368 7.30015 6.54799L8.48557 5.36256Z" fill="#0F1FEA" style="fill:#0F1FEA;fill:color(display-p3 0.0588 0.1216 0.9176);fill-opacity:1;"/>
</svg>
