<svg width="16" height="17" viewBox="0 0 16 17" fill="none" xmlns="http://www.w3.org/2000/svg">
<path d="M7.50727 11.4826C6.74317 11.3327 6.18617 11.0184 5.7934 10.6185C3.99384 8.82613 4.00098 6.29103 5.78626 4.51289L8.29993 1.99208C10.0781 0.213943 12.606 0.199661 14.4056 2.00636C16.2051 3.79878 16.2051 6.34102 14.4127 8.11201L12.4061 10.1187C12.5632 9.49739 12.4703 8.79042 12.2204 8.21913L13.313 7.12654C14.4913 5.94826 14.4984 4.29152 13.3059 3.09895C12.1276 1.92067 10.4708 1.92067 9.28541 3.10609L6.88599 5.49837C5.70771 6.67665 5.70771 8.34053 6.89314 9.52596C7.30732 9.94014 7.90717 10.2115 8.69984 10.2901L7.50727 11.4826ZM8.4856 5.36269C9.2497 5.50551 9.80671 5.81972 10.1995 6.21962C11.999 8.01204 11.9919 10.5471 10.2138 12.3253L7.70008 14.8461C5.9148 16.6242 3.38685 16.6385 1.58729 14.8318C-0.212271 13.0394 -0.212271 10.4971 1.58015 8.72615L3.5868 6.7195C3.4297 7.34077 3.52253 8.04774 3.77247 8.61903L2.67988 9.71162C1.5016 10.8899 1.5016 12.5466 2.68702 13.7392C3.87245 14.9175 5.52918 14.9175 6.70747 13.7392L9.10688 11.3398C10.2852 10.1615 10.2852 8.49763 9.09974 7.31221C8.68555 6.89803 8.0857 6.6338 7.30018 6.54811L8.4856 5.36269Z" fill="#322F2F" style="fill:#322F2F;fill:color(display-p3 0.1972 0.1824 0.1824);fill-opacity:1;"/>
</svg>
