<svg width="48" height="48" viewBox="0 0 48 48" fill="none" xmlns="http://www.w3.org/2000/svg">
    <path d="M0 24C0 10.7452 10.7452 0 24 0C37.2548 0 48 10.7452 48 24C48 37.2548 37.2548 48 24 48C10.7452 48 0 37.2548 0 24Z" fill="#00A63E"/>
    <path d="M27.4768 24.8896L28.9918 33.4156C29.0087 33.516 28.9946 33.6192 28.9514 33.7114C28.9081 33.8036 28.8377 33.8803 28.7497 33.9314C28.6616 33.9825 28.56 34.0055 28.4586 33.9974C28.3571 33.9892 28.2605 33.9502 28.1818 33.8856L24.6018 31.1986C24.4289 31.0695 24.219 30.9998 24.0033 30.9998C23.7875 30.9998 23.5776 31.0695 23.4048 31.1986L19.8188 33.8846C19.7401 33.9491 19.6436 33.988 19.5422 33.9962C19.4409 34.0044 19.3394 33.9815 19.2514 33.9305C19.1634 33.8796 19.093 33.803 19.0497 33.711C19.0063 33.619 18.992 33.516 19.0088 33.4156L20.5228 24.8896" stroke="white" stroke-width="2" stroke-linecap="round" stroke-linejoin="round"/>
    <path d="M24 26C27.3137 26 30 23.3137 30 20C30 16.6863 27.3137 14 24 14C20.6863 14 18 16.6863 18 20C18 23.3137 20.6863 26 24 26Z" stroke="white" stroke-width="2" stroke-linecap="round" stroke-linejoin="round"/>
</svg>
