<svg
        width="72"
        height="72"
        viewBox="0 0 64 64"
        fill="none"
>
    <path
            d="M12 20V44C12 45.5913 12.6321 47.1174 13.7574 48.2426C14.8826 49.3679 16.4087 50 18 50H46C47.5913 50 49.1174 49.3679 50.2426 48.2426C51.3679 47.1174 52 45.5913 52 44V20C52 18.4087 51.3679 16.8826 50.2426 15.7574C49.1174 14.6321 47.5913 14 46 14H18C16.4087 14 14.8826 14.6321 13.7574 15.7574C12.6321 16.8826 12 18.4087 12 20Z"
            stroke="white"
            stroke-width="2.5"
            stroke-linecap="round"
            stroke-linejoin="round"
    />
    <path
            d="M20 26L32 34L44 26"
            stroke="white"
            stroke-width="2.5"
            stroke-linecap="round"
            stroke-linejoin="round"
    />
</svg>
